<svg xmlns="http://www.w3.org/2000/svg" viewBox="0 0 1600.5 707.27"><defs><style>.cls-1{fill:#0b1b34;}.cls-2{fill:#1a8da8;}.cls-3{fill:#fff;}.cls-4{fill:#ed9f21;}</style></defs><title>CAMPANHA</title><g id="Camada_2" data-name="Camada 2"><g id="Layer_1" data-name="Layer 1"><rect class="cls-1" y="7.27" width="1600.5" height="700"/><rect class="cls-2" x="1274.11" y="19.09" width="262.99" height="163.71"/><rect class="cls-3" x="1291.77" y="50.59" width="48.21" height="31.5"/><rect class="cls-3" x="1351.91" y="50.59" width="48.21" height="31.5"/><rect class="cls-3" x="1411.57" y="50.59" width="48.21" height="31.5"/><rect class="cls-3" x="1471.23" y="50.59" width="48.21" height="31.5"/><rect class="cls-3" x="1291.77" y="94.98" width="48.21" height="31.5"/><rect class="cls-3" x="1351.91" y="94.98" width="48.21" height="31.5"/><rect class="cls-3" x="1411.57" y="94.98" width="48.21" height="31.5"/><rect class="cls-3" x="1471.23" y="94.98" width="48.21" height="31.5"/><rect class="cls-3" x="1291.77" y="139.37" width="48.21" height="31.5"/><rect class="cls-3" x="1351.91" y="139.37" width="48.21" height="31.5"/><rect class="cls-3" x="1411.57" y="139.37" width="48.21" height="31.5"/><rect class="cls-3" x="1471.23" y="139.37" width="48.21" height="31.5"/><circle class="cls-3" cx="1343.14" cy="31.24" r="7.22"/><circle class="cls-3" cx="1462.59" cy="31.24" r="7.22"/><rect class="cls-2" x="1340.46" width="5.73" height="33.41"/><rect class="cls-2" x="1459.78" width="5.73" height="33.41"/><path class="cls-4" d="M1506.42,66.4a10.85,10.85,0,1,1-1.68-5.82A10.85,10.85,0,0,1,1506.42,66.4Z"/><path class="cls-3" d="M1504.74,60.58,1494,71.3c-.68-1-4.43-5.89-4.43-5.89a14.17,14.17,0,0,1,1.54-1.35l3.11,4.15,9.24-9.25A11.54,11.54,0,0,1,1504.74,60.58Z"/><path class="cls-4" d="M1386.72,110.72a10.86,10.86,0,1,1-1.68-5.82A10.86,10.86,0,0,1,1386.72,110.72Z"/><path class="cls-3" d="M1385,104.9l-10.72,10.72c-.68-1.05-4.43-5.89-4.43-5.89a15.17,15.17,0,0,1,1.53-1.36l3.12,4.15,9.24-9.24A11,11,0,0,1,1385,104.9Z"/><path class="cls-4" d="M1326.87,110.72a10.86,10.86,0,1,1-1.68-5.82A10.87,10.87,0,0,1,1326.87,110.72Z"/><path class="cls-3" d="M1325.19,104.9l-10.72,10.72c-.68-1.05-4.43-5.89-4.43-5.89a15.17,15.17,0,0,1,1.53-1.36l3.12,4.15,9.24-9.24A11,11,0,0,1,1325.19,104.9Z"/><path class="cls-4" d="M1326.87,65.62a10.85,10.85,0,1,1-1.68-5.82A10.86,10.86,0,0,1,1326.87,65.62Z"/><path class="cls-3" d="M1325.19,59.8l-10.72,10.72c-.68-1-4.43-5.89-4.43-5.89a15.07,15.07,0,0,1,1.53-1.35l3.12,4.15,9.24-9.25A11.54,11.54,0,0,1,1325.19,59.8Z"/><path class="cls-4" d="M1386.64,65.62A10.87,10.87,0,1,1,1385,59.8,10.86,10.86,0,0,1,1386.64,65.62Z"/><path class="cls-3" d="M1385,59.8l-10.72,10.72c-.67-1-4.43-5.89-4.43-5.89a16.35,16.35,0,0,1,1.54-1.35l3.11,4.15,9.25-9.25A10.77,10.77,0,0,1,1385,59.8Z"/><path class="cls-4" d="M1446.54,66.4a10.87,10.87,0,1,1-1.69-5.82A10.86,10.86,0,0,1,1446.54,66.4Z"/><path class="cls-3" d="M1444.85,60.58,1434.13,71.3c-.67-1-4.43-5.89-4.43-5.89a16.35,16.35,0,0,1,1.54-1.35l3.11,4.15L1443.6,59A10.77,10.77,0,0,1,1444.85,60.58Z"/><path class="cls-4" d="M1444.85,110.72a10.86,10.86,0,1,1-1.68-5.82A10.86,10.86,0,0,1,1444.85,110.72Z"/><path class="cls-3" d="M1443.17,104.9l-10.72,10.72c-.67-1.05-4.43-5.89-4.43-5.89a15.28,15.28,0,0,1,1.54-1.36l3.11,4.15,9.25-9.24A11.64,11.64,0,0,1,1443.17,104.9Z"/><path class="cls-4" d="M1508,110.72a10.86,10.86,0,1,1-1.68-5.82A10.86,10.86,0,0,1,1508,110.72Z"/><path class="cls-3" d="M1506.34,104.9l-10.72,10.72c-.67-1.05-4.43-5.89-4.43-5.89a15.28,15.28,0,0,1,1.54-1.36l3.11,4.15,9.25-9.24A10.92,10.92,0,0,1,1506.34,104.9Z"/><path class="cls-4" d="M1326.87,155.13a10.85,10.85,0,1,1-1.68-5.82A10.86,10.86,0,0,1,1326.87,155.13Z"/><path class="cls-3" d="M1325.19,149.31,1314.47,160c-.68-1-4.43-5.89-4.43-5.89a15.17,15.17,0,0,1,1.53-1.36l3.12,4.15,9.24-9.24A11,11,0,0,1,1325.19,149.31Z"/><path class="cls-4" d="M1386.88,155.13a10.87,10.87,0,1,1-1.69-5.82A10.87,10.87,0,0,1,1386.88,155.13Z"/><path class="cls-3" d="M1385.19,149.31,1374.47,160c-.67-1-4.43-5.89-4.43-5.89a15.28,15.28,0,0,1,1.54-1.36l3.11,4.15,9.25-9.24A10.29,10.29,0,0,1,1385.19,149.31Z"/></g></g></svg>