<svg xmlns="http://www.w3.org/2000/svg" xmlns:xlink="http://www.w3.org/1999/xlink" viewBox="0 0 1600 700"><defs><style>.cls-1,.cls-9{fill:none;}.cls-2{fill:#ec9e22;}.cls-3,.cls-5{font-size:119.7px;font-family:FilsonProBlack, Filson Pro;}.cls-3{fill:#232f64;}.cls-4{letter-spacing:-0.02em;}.cls-5{fill:#f3efed;}.cls-6{letter-spacing:-0.03em;}.cls-7{fill:#0b1b34;}.cls-8{clip-path:url(#clip-path);}.cls-9{stroke:#f3efed;stroke-miterlimit:10;stroke-width:0.25px;}</style><clipPath id="clip-path"><circle class="cls-1" cx="180.99" cy="534.49" r="11.64"/></clipPath></defs><title>INÍCIO</title><g id="Camada_2" data-name="Camada 2"><g id="Layer_1" data-name="Layer 1"><rect class="cls-2" width="1600" height="700"/><text class="cls-3" transform="translate(94.48 506.26) scale(1 1.1)"><tspan class="cls-4">w</tspan><tspan x="96.72" y="0">e</tspan></text><text class="cls-5" transform="translate(272 506) scale(1 1.1)">ma<tspan class="cls-6" x="188.89" y="0">k</tspan><tspan x="263.58" y="0">e</tspan></text><path class="cls-7" d="M106.28,577.39c0-13.65,8.45-24.55,21.72-24.55,8.19,0,14.91,4.36,18.36,12.51V534.06a1.44,1.44,0,0,1,1.47-1.61h1.46c1,0,1.47.57,1.47,1.61v65.33a1.44,1.44,0,0,1-1.47,1.61h-1.46c-1,0-1.47-.57-1.47-1.61v-9.86C142.91,597.68,136.19,602,128,602,114.73,602,106.28,591.14,106.28,577.39Zm40.25,0c-.08-11.94-7.67-20.19-18.18-20.19-10.95,0-17.67,8.91-17.67,20.19s6.72,20.38,17.67,20.38C138.86,597.77,146.45,589.43,146.53,577.39Z"/><path class="cls-7" d="M178.68,599.39v-43.9c0-1,.52-1.61,1.38-1.61h1.55c.95,0,1.47.57,1.47,1.61v43.9a1.44,1.44,0,0,1-1.47,1.61h-1.55C179.2,601,178.68,600.43,178.68,599.39Z"/><path class="cls-7" d="M213.24,599.58V557.86h-6.63a.86.86,0,0,1-.87-1v-2.08a.86.86,0,0,1,.87-1h6.63v-4.27c0-14.41,6.72-18.2,13-18.2,5.43,0,9.13,2.46,10.77,6.26a1.38,1.38,0,0,1-.78,1.89l-1.29.67c-.78.38-1.38.28-1.72-.67-1.3-2.75-3.54-3.88-7-3.88-4.14,0-8.62,3.12-8.62,13.46v4.74h24.82v-4.27c0-14.41,6.72-18.2,13-18.2,7.67,0,11.81,4.93,11.81,11.28a6.25,6.25,0,0,1-.26,1.8c-.17.48-.52.57-1.12.57h-1.81c-.6,0-1.21,0-1-.76a6.26,6.26,0,0,0,.17-1.51c0-4.08-3-7.11-7.76-7.11-4.13,0-8.62,3.12-8.62,13.46v4.74h11.81a.86.86,0,0,1,.86,1v2.08a.86.86,0,0,1-.86,1H246.85v41.72a1.28,1.28,0,0,1-1.29,1.42h-1.81a1.29,1.29,0,0,1-1.29-1.42V557.86H217.64v41.72a1.29,1.29,0,0,1-1.3,1.42h-1.81A1.29,1.29,0,0,1,213.24,599.58Z"/><path class="cls-7" d="M275.81,577.58c0-13.56,9.66-24.74,22.93-24.74,10.26,0,20,6.63,21,21.8.08,1-.43,1.61-1.38,1.61H280.3c-1,12.14,7.58,21.52,19.47,21.52a20.19,20.19,0,0,0,14.14-5.59,1.24,1.24,0,0,1,2,.19l.6.76a1.67,1.67,0,0,1-.25,2.46A22.84,22.84,0,0,1,299.69,602C285.12,602,275.81,591,275.81,577.58Zm39.48-5.12c-1.55-11.09-9.05-15.36-16.46-15.36-8.8,0-15.95,6.07-18.1,15.36Z"/><path class="cls-7" d="M343.3,599.39v-43.9a1.42,1.42,0,0,1,1.46-1.61h1.47c.95,0,1.46.57,1.46,1.61V566.2c1.81-7.87,6.29-13.36,13.88-13.36a14.62,14.62,0,0,1,2.07.19c.86.09,1.12.85,1.12,1.7v1.61c0,1-.43,1.52-1.21,1.33s-1.64-.19-2.15-.19c-9,0-13.62,10-13.71,25.41v16.5c0,1-.51,1.61-1.46,1.61h-1.47C343.81,601,343.3,600.43,343.3,599.39Z"/><path class="cls-7" d="M379.67,577.58c0-13.56,9.65-24.74,22.92-24.74,10.26,0,20,6.63,21,21.8.09,1-.43,1.61-1.38,1.61H384.15c-1,12.14,7.58,21.52,19.48,21.52a20.16,20.16,0,0,0,14.13-5.59,1.24,1.24,0,0,1,2,.19l.61.76a1.68,1.68,0,0,1-.26,2.46A22.83,22.83,0,0,1,403.54,602C389,602,379.67,591,379.67,577.58Zm39.47-5.12c-1.55-11.09-9.05-15.36-16.46-15.36-8.79,0-15.95,6.07-18.1,15.36Z"/><path class="cls-7" d="M447.15,599.39v-43.9a1.43,1.43,0,0,1,1.47-1.61h1.46c.95,0,1.47.57,1.47,1.61v9.1c2.93-8.44,10.08-11.75,15.6-11.75,9,0,17.75,5.12,17.75,21.14v25.41a1.44,1.44,0,0,1-1.47,1.61h-1.55c-.86,0-1.38-.57-1.38-1.61V574c0-13.09-7-16.78-13.53-16.78-5.08,0-15.16,4.07-15.42,19.72v22.47c0,1-.52,1.61-1.47,1.61h-1.46C447.67,601,447.15,600.43,447.15,599.39Z"/><path class="cls-7" d="M508.34,577.68c0-13.75,8.71-24.84,24.22-24.84a24.39,24.39,0,0,1,13.7,4.55,1.46,1.46,0,0,1,.44,2.18l-.61.85a1.41,1.41,0,0,1-2.07.38,19.66,19.66,0,0,0-11.29-3.6c-12.32,0-19.82,8.81-20,20.29.26,11.47,7.67,20.28,20,20.28A19.92,19.92,0,0,0,544,594.08a1.35,1.35,0,0,1,2.07.47l.52.85c.52.86.17,1.81-1.21,2.66a24.08,24.08,0,0,1-12.84,4C517.22,602,508.6,591.23,508.34,577.68Z"/><path class="cls-7" d="M566.43,577.58c0-13.56,9.66-24.74,22.93-24.74,10.25,0,20,6.63,21,21.8.08,1-.43,1.61-1.38,1.61h-38.1c-1,12.14,7.59,21.52,19.48,21.52a20.19,20.19,0,0,0,14.14-5.59,1.24,1.24,0,0,1,2,.19l.6.76a1.66,1.66,0,0,1-.26,2.46A22.8,22.8,0,0,1,590.31,602C575.74,602,566.43,591,566.43,577.58Zm39.48-5.12c-1.56-11.09-9-15.36-16.47-15.36-8.79,0-15.94,6.07-18.09,15.36Z"/><g class="cls-8"><line class="cls-9" x1="193.57" y1="513.11" x2="163.41" y2="528.29"/><line class="cls-9" x1="194.04" y1="514.71" x2="163.88" y2="529.89"/><line class="cls-9" x1="194.5" y1="516.31" x2="164.34" y2="531.49"/><line class="cls-9" x1="194.97" y1="517.91" x2="164.81" y2="533.09"/><line class="cls-9" x1="195.43" y1="519.51" x2="165.27" y2="534.69"/><line class="cls-9" x1="195.9" y1="521.11" x2="165.74" y2="536.29"/><line class="cls-9" x1="196.36" y1="522.71" x2="166.2" y2="537.89"/><line class="cls-9" x1="196.83" y1="524.31" x2="166.67" y2="539.49"/><line class="cls-9" x1="197.29" y1="525.91" x2="167.13" y2="541.09"/><line class="cls-9" x1="197.76" y1="527.51" x2="167.6" y2="542.69"/><line class="cls-9" x1="198.22" y1="529.11" x2="168.06" y2="544.29"/><line class="cls-9" x1="198.69" y1="530.71" x2="168.53" y2="545.89"/><line class="cls-9" x1="199.15" y1="532.31" x2="168.99" y2="547.49"/><line class="cls-9" x1="199.62" y1="533.91" x2="169.46" y2="549.09"/><line class="cls-9" x1="200.08" y1="535.51" x2="169.92" y2="550.69"/><line class="cls-9" x1="200.55" y1="537.11" x2="170.39" y2="552.29"/><line class="cls-9" x1="201.01" y1="538.71" x2="170.85" y2="553.89"/><line class="cls-9" x1="201.48" y1="540.31" x2="171.32" y2="555.49"/><line class="cls-9" x1="201.94" y1="541.91" x2="171.78" y2="557.09"/></g></g></g></svg>