<?xml version="1.0" standalone="no"?>
<!DOCTYPE svg PUBLIC "-//W3C//DTD SVG 20010904//EN"
 "http://www.w3.org/TR/2001/REC-SVG-20010904/DTD/svg10.dtd">
<svg version="1.0" xmlns="http://www.w3.org/2000/svg"
 width="4501.000000pt" height="4500.000000pt" viewBox="0 0 4501.000000 4500.000000"
 preserveAspectRatio="xMidYMid meet">

<g transform="translate(0.000000,4500.000000) scale(0.100000,-0.100000)"
fill="#000000" stroke="none">
<path d="M34809 26883 c0 -2454 -1 -2645 -17 -2613 -243 523 -423 793 -736
1105 -626 622 -1451 930 -2375 884 -738 -36 -1365 -262 -1921 -693 -131 -101
-385 -348 -493 -479 -510 -615 -806 -1368 -898 -2282 -20 -198 -18 -720 5
-925 92 -860 380 -1598 854 -2192 514 -644 1224 -1064 2022 -1197 213 -35 288
-43 497 -48 404 -10 732 37 1093 157 474 158 856 394 1216 754 294 294 513
611 687 991 32 72 60 131 62 133 2 2 3 -416 3 -928 0 -513 3 -934 6 -937 7 -8
603 -9 611 -1 4 4 7 1120 7 2480 -1 1360 -1 3815 -1 5456 l-1 2982 -310 0
-310 0 -1 -2647z m-2594 -1259 c1169 -130 2105 -970 2459 -2204 33 -115 56
-215 92 -410 65 -347 65 -929 0 -1281 -89 -486 -202 -806 -419 -1194 -225
-402 -584 -786 -964 -1033 -564 -366 -1256 -513 -1923 -408 -52 9 -113 18
-135 21 -180 27 -466 126 -685 237 -912 462 -1510 1425 -1625 2617 -18 182
-21 584 -5 751 60 655 247 1218 562 1690 132 199 208 291 377 460 205 204 394
344 636 471 481 252 1040 349 1630 283z"/>
<path d="M4574 26483 c3 -10 689 -1754 1523 -3876 l1517 -3857 1295 2 1295 3
557 1713 c307 943 559 1715 561 1717 2 2 255 -770 562 -1716 l559 -1719 1296
2 1295 3 787 2000 788 2000 0 1873 1 1872 -1137 -2 -1137 -3 -476 -1817 c-261
-999 -476 -1815 -478 -1813 -2 1 -250 776 -551 1721 l-548 1719 -959 3 -959 2
-544 -1707 c-299 -940 -547 -1715 -552 -1723 -10 -19 30 -165 -494 1840 -251
960 -458 1753 -461 1763 -5 16 -103 17 -1876 17 -1777 0 -1870 -1 -1864 -17z"/>
</g>
</svg>
